<svg width="443" height="115" viewBox="0 0 443 115" fill="none" xmlns="http://www.w3.org/2000/svg">
<path d="M1.96 65.424L1.32 31.632L18.088 30.224L17.32 63.76L18.088 90H1.064L1.96 65.424ZM10.024 1.296C12.6693 1.296 14.7173 2.064 16.168 3.6C17.704 5.136 18.472 7.26933 18.472 10C18.472 12.9013 17.6613 15.2053 16.04 16.912C14.4187 18.6187 12.2 19.472 9.384 19.472C6.568 19.472 4.392 18.704 2.856 17.168C1.40533 15.632 0.68 13.456 0.68 10.64C0.68 7.82399 1.49067 5.56266 3.112 3.856C4.81867 2.14933 7.12267 1.296 10.024 1.296ZM70.791 52.88C70.8763 49.8933 70.1937 47.5893 68.743 45.968C67.3777 44.2613 65.3723 43.408 62.727 43.408C58.887 43.408 54.791 45.2427 50.439 48.912V63.76L51.207 90H34.183L35.079 65.424L34.439 31.632L50.567 30.224V38.928H51.463C56.1563 34.6613 61.2763 31.5893 66.823 29.712C73.3083 29.712 78.2577 31.2053 81.671 34.192C85.0843 37.0933 86.7057 41.3173 86.535 46.864L86.151 63.888L86.919 90H69.767L70.791 52.88ZM121.901 29.456C127.704 29.456 133.165 30.4373 138.285 32.4L135.981 44.944L133.933 45.584C131.458 43.9627 128.984 42.7253 126.509 41.872C124.034 41.0187 121.858 40.592 119.981 40.592C117.933 40.592 116.312 41.1467 115.117 42.256C113.922 43.28 113.325 44.56 113.325 46.096C113.325 47.888 114.093 49.3387 115.629 50.448C117.25 51.5573 119.768 52.7947 123.181 54.16C126.594 55.5253 129.41 56.848 131.629 58.128C133.848 59.408 135.725 61.2 137.261 63.504C138.882 65.7227 139.693 68.496 139.693 71.824C139.693 75.2373 138.797 78.4373 137.005 81.424C135.298 84.3253 132.653 86.7147 129.069 88.592C125.485 90.384 121.09 91.28 115.885 91.28C109.741 91.28 103.384 90 96.813 87.44L98.733 74.128L100.397 73.104C103.042 75.3227 105.986 77.1147 109.229 78.48C112.472 79.76 115.33 80.4 117.805 80.4C120.109 80.4 121.901 79.8453 123.181 78.736C124.461 77.5413 125.101 76.1333 125.101 74.512C125.101 72.72 124.29 71.2693 122.669 70.16C121.133 69.0507 118.658 67.8133 115.245 66.448C111.746 64.912 108.888 63.5467 106.669 62.352C104.45 61.072 102.53 59.28 100.909 56.976C99.373 54.672 98.605 51.8133 98.605 48.4C98.605 42.8533 100.696 38.3307 104.877 34.832C109.058 31.248 114.733 29.456 121.901 29.456ZM152.21 65.424L151.57 31.632L168.338 30.224L167.57 63.76L168.338 90H151.314L152.21 65.424ZM160.274 1.296C162.919 1.296 164.967 2.064 166.418 3.6C167.954 5.136 168.722 7.26933 168.722 10C168.722 12.9013 167.911 15.2053 166.29 16.912C164.669 18.6187 162.45 19.472 159.634 19.472C156.818 19.472 154.642 18.704 153.106 17.168C151.655 15.632 150.93 13.456 150.93 10.64C150.93 7.82399 151.741 5.56266 153.362 3.856C155.069 2.14933 157.373 1.296 160.274 1.296ZM241.649 38.544C239.345 39.1413 236.06 39.7813 231.793 40.464L231.537 40.976C232.817 43.536 233.457 46.3947 233.457 49.552C233.457 55.952 231.11 61.072 226.417 64.912C221.809 68.6667 215.537 70.544 207.601 70.544C205.212 70.544 202.737 70.3307 200.177 69.904C199.409 70.672 198.897 71.2693 198.641 71.696C198.385 72.1227 198.257 72.6347 198.257 73.232C198.257 74.768 199.281 75.8347 201.329 76.432C203.377 77.0293 206.62 77.6267 211.057 78.224C216.092 78.8213 220.273 79.5467 223.601 80.4C227.014 81.2533 229.916 82.7467 232.305 84.88C234.78 87.0133 236.017 90.0427 236.017 93.968C236.017 97.9787 234.737 101.563 232.177 104.72C229.702 107.963 226.246 110.48 221.809 112.272C217.372 114.064 212.337 114.96 206.705 114.96C198.94 114.96 192.966 113.381 188.785 110.224C184.604 107.067 182.513 102.885 182.513 97.68C185.158 94.0107 188.7 90.8107 193.137 88.08V87.44C190.236 86.416 187.974 85.008 186.353 83.216C184.732 81.3387 183.921 78.864 183.921 75.792C186.225 72.976 189.126 70.3733 192.625 67.984V67.344C189.553 65.6373 187.206 63.4187 185.585 60.688C184.049 57.872 183.281 54.5867 183.281 50.832C183.281 44.176 185.585 38.9707 190.193 35.216C194.801 31.4613 201.073 29.584 209.009 29.584C213.617 29.584 217.798 30.352 221.553 31.888C227.697 30.7787 233.969 29.072 240.369 26.768L241.649 27.92V38.544ZM208.113 60.304C211.612 60.304 214.257 59.408 216.049 57.616C217.841 55.824 218.737 53.2213 218.737 49.808C218.737 43.3227 215.409 40.08 208.753 40.08C201.585 40.08 198.001 43.3653 198.001 49.936C198.001 53.3493 198.854 55.952 200.561 57.744C202.268 59.4507 204.785 60.304 208.113 60.304ZM221.681 97.04C221.681 94.736 220.444 93.1573 217.969 92.304C215.58 91.4507 211.868 90.7253 206.833 90.128L202.481 89.488C200.433 90.8533 198.897 92.176 197.873 93.456C196.849 94.736 196.337 96.1013 196.337 97.552C196.337 99.7707 197.361 101.563 199.409 102.928C201.457 104.293 204.444 104.976 208.369 104.976C212.38 104.976 215.58 104.251 217.969 102.8C220.444 101.435 221.681 99.5147 221.681 97.04ZM285.553 52.88C285.638 49.808 284.998 47.4613 283.633 45.84C282.268 44.2187 280.262 43.408 277.617 43.408C273.777 43.408 269.681 45.2427 265.329 48.912L265.073 63.76L265.969 90H248.945L249.841 65.296L249.073 1.424L266.097 0.143997L265.457 38.928H266.225C270.918 34.6613 276.081 31.5893 281.713 29.712C288.198 29.712 293.105 31.2053 296.433 34.192C299.846 37.0933 301.51 41.3173 301.425 46.864L301.041 63.888L301.681 90H284.657L285.553 52.88ZM340.747 77.456C343.478 77.456 346.336 76.7307 349.323 75.28L350.731 76.56L349.067 86.672C344.715 88.8907 340.278 90.256 335.755 90.768C324.235 89.5733 318.475 83.9413 318.475 73.872L319.115 63.248L318.987 41.232H311.051L310.411 40.336L311.307 30.992H318.859V21.136L334.347 16.144L335.499 17.168L335.115 30.992H350.347L350.859 31.888L350.091 41.232H334.859L334.091 69.904C334.091 72.6347 334.603 74.5973 335.627 75.792C336.651 76.9013 338.358 77.456 340.747 77.456ZM376.573 63.76L377.469 90H360.445L361.341 65.296L360.573 1.424L377.597 0.143997L376.573 63.76ZM403.798 39.568L414.422 72.848H415.446L426.07 40.976L428.246 30.48H442.838L423.382 86.032C421.334 91.8347 419.03 96.4853 416.47 99.984C413.91 103.568 410.71 106.469 406.87 108.688C403.03 110.992 398.081 112.955 392.022 114.576L390.742 114.448C387.841 111.632 385.451 108.304 383.574 104.464L384.086 102.8C389.462 101.861 393.899 100.453 397.398 98.576C400.897 96.784 404.225 93.9253 407.382 90L385.622 30.864L401.75 30.096L403.798 39.568Z" fill="#2563EB"/>
</svg>
