<svg width="400" height="251" viewBox="0 0 400 251" fill="none" xmlns="http://www.w3.org/2000/svg">
<path d="M277.664 193.732C147.513 323.424 38.3249 202.164 0 125.322H41.9658C120.724 260.993 206.38 217.302 246.046 181.66L393.789 183.385C400.687 183.385 400.687 193.732 393.789 193.732H277.664Z" fill="white"/>
<path d="M393.215 175.336H249.496C250.416 174.417 254.478 168.055 256.395 164.989H393.215C400.688 164.989 400.688 175.336 393.215 175.336Z" fill="white"/>
<path d="M393.215 157.516H259.844C260.764 157.516 262.91 150.617 263.868 147.168H393.215C400.688 147.168 400.688 157.516 393.215 157.516Z" fill="white"/>
<path d="M393.213 139.12H267.891C269.27 138.2 269.615 131.455 269.615 128.197H393.213C401.261 128.197 401.261 139.12 393.213 139.12Z" fill="white"/>
<path d="M277.664 57.0924C147.513 -72.5992 38.3249 48.6609 0 125.502H41.9658C120.724 -10.1681 206.38 33.5223 246.046 69.1645L393.789 67.4399C400.687 67.4399 400.687 57.0924 393.789 57.0924H277.664Z" fill="white"/>
<path d="M393.215 74.7334H249.496C250.416 75.6532 254.478 82.0151 256.395 85.0811H393.215C400.688 85.0811 400.688 74.7334 393.215 74.7334Z" fill="white"/>
<path d="M393.215 92.5547H259.844C260.764 92.5547 262.91 99.4532 263.868 102.902H393.215C400.688 102.902 400.688 92.5547 393.215 92.5547Z" fill="white"/>
<path d="M393.213 110.951H267.891C269.27 111.87 269.615 118.616 269.615 121.873H393.213C401.261 121.873 401.261 110.951 393.213 110.951Z" fill="white"/>
<path d="M85.082 125.898C85.082 146.089 92.9513 165.485 107.019 179.969C121.087 194.453 140.246 202.884 160.429 203.473L162.69 125.898L85.082 125.898Z" fill="white"/>
<path d="M162.69 203.506C182.881 203.506 202.278 195.636 216.762 181.568C231.246 167.5 239.677 148.341 240.265 128.158L162.69 125.898L162.69 203.506Z" fill="white"/>
<path d="M240.298 125.898C240.298 105.706 232.429 86.3096 218.361 71.8257C204.293 57.3417 185.134 48.9107 164.951 48.3225L162.69 125.898H240.298Z" fill="white"/>
<path d="M162.69 48.2896C142.499 48.2896 123.102 56.1588 108.618 70.2268C94.1342 84.2948 85.7032 103.454 85.115 123.637L162.69 125.898L162.69 48.2896Z" fill="white"/>
<circle cx="162.69" cy="125.897" r="46.5648" fill="#111827"/>
<ellipse cx="162.5" cy="125.668" rx="32.5" ry="33" fill="white"/>
<path d="M161.88 106.116C166.063 92.7037 179.502 98.2151 185.699 102.647C192.09 107.85 194.995 118.835 191.509 125.194C188.72 130.281 179.89 130.012 175.823 129.241C169.433 127.121 157.698 119.528 161.88 106.116Z" fill="#111827" stroke="white"/>
</svg>
