<svg width="599" height="377" viewBox="0 0 599 377" fill="none" xmlns="http://www.w3.org/2000/svg">
<path d="M416.496 290.598C221.269 485.136 57.4874 303.245 0 187.983H62.9487C181.085 391.489 309.57 325.953 369.069 272.49L590.683 275.077C601.031 275.077 601.031 290.598 590.683 290.598H416.496Z" fill="#2563EB"/>
<path d="M589.824 263.005H374.246C375.626 261.625 381.719 252.082 384.594 247.483H589.824C601.034 247.483 601.034 263.005 589.824 263.005Z" fill="#2563EB"/>
<path d="M589.822 236.273H389.766C391.145 236.273 394.365 225.926 395.802 220.752H589.822C601.032 220.752 601.032 236.273 589.822 236.273Z" fill="#2563EB"/>
<path d="M589.82 208.68H401.836C403.905 207.3 404.423 197.182 404.423 192.296H589.82C601.892 192.296 601.892 208.68 589.82 208.68Z" fill="#2563EB"/>
<path d="M416.496 85.6386C221.269 -108.899 57.4874 72.9914 0 188.254H62.9487C181.085 -15.2521 309.57 50.2835 369.069 103.747L590.683 101.16C601.031 101.16 601.031 85.6386 590.683 85.6386H416.496Z" fill="#2563EB"/>
<path d="M589.824 112.1H374.246C375.626 113.48 381.719 123.023 384.594 127.622H589.824C601.034 127.622 601.034 112.1 589.824 112.1Z" fill="#2563EB"/>
<path d="M589.822 138.832H389.766C391.145 138.832 394.365 149.18 395.802 154.354H589.822C601.032 154.354 601.032 138.832 589.822 138.832Z" fill="#2563EB"/>
<path d="M589.82 166.426H401.836C403.905 167.805 404.423 177.923 404.423 182.81H589.82C601.892 182.81 601.892 166.426 589.82 166.426Z" fill="#2563EB"/>
<path d="M127.621 188.847C127.621 219.134 139.425 248.228 160.527 269.954C181.629 291.68 210.367 304.327 240.642 305.209L244.033 188.847L127.621 188.847Z" fill="#2563EB"/>
<path d="M244.033 305.259C274.32 305.259 303.415 293.455 325.141 272.353C346.867 251.251 359.513 222.512 360.396 192.238L244.033 188.847L244.033 305.259Z" fill="#2563EB"/>
<path d="M360.445 188.847C360.445 158.559 348.641 129.465 327.539 107.739C306.437 86.0128 277.699 73.3663 247.424 72.484L244.033 188.847H360.445Z" fill="#2563EB"/>
<path d="M244.033 72.4346C213.746 72.4346 184.651 84.2385 162.925 105.34C141.199 126.442 128.553 155.181 127.671 185.455L244.033 188.847L244.033 72.4346Z" fill="#2563EB"/>
<circle cx="244.031" cy="188.846" r="69.8472" fill="white"/>
<ellipse cx="243.75" cy="188.502" rx="48.75" ry="49.5" fill="#2563EB"/>
<path d="M242.821 159.174C249.095 139.055 269.254 147.322 278.549 153.971C288.134 161.775 292.492 178.252 287.263 187.791C283.081 195.422 269.835 195.017 263.735 193.861C254.149 190.681 236.546 179.292 242.821 159.174Z" fill="white" stroke="#2563EB" stroke-width="1.5"/>
</svg>
